<?xml version="1.0" standalone="no"?>
<!DOCTYPE svg PUBLIC "-//W3C//DTD SVG 20010904//EN"
 "http://www.w3.org/TR/2001/REC-SVG-20010904/DTD/svg10.dtd">
<svg version="1.0" xmlns="http://www.w3.org/2000/svg"
 width="512.000000pt" height="512.000000pt" viewBox="0 0 512.000000 512.000000"
 preserveAspectRatio="xMidYMid meet">

<g transform="translate(0.000000,512.000000) scale(0.100000,-0.100000)"
fill="#000000" stroke="none">
<path d="M1607 2884 c-9 -17 -17 -23 -21 -15 -17 27 -44 10 -65 -42 -48 -117
-111 -159 -301 -201 -63 -15 -118 -26 -122 -26 -3 0 -10 14 -13 32 -10 45
-108 140 -161 156 -97 28 -190 -1 -273 -87 -110 -112 -131 -254 -56 -365 l25
-36 -40 -53 c-78 -102 -150 -268 -185 -429 -21 -94 -33 -551 -17 -651 13 -84
48 -160 95 -211 28 -29 34 -42 27 -56 -5 -9 -50 -68 -100 -131 -50 -63 -108
-143 -129 -179 -80 -135 -139 -331 -148 -493 l-6 -97 257 0 c197 0 257 3 260
12 2 7 9 42 16 78 23 123 90 269 179 386 45 60 137 135 216 177 33 18 60 39
60 47 0 11 -34 24 -125 46 -345 87 -496 199 -545 406 -21 90 -21 522 0 644 42
238 134 421 276 544 154 134 290 201 505 249 66 15 141 38 167 50 63 31 121
96 147 170 13 33 26 61 30 61 4 0 16 -12 26 -27 32 -50 118 -134 181 -179 72
-52 167 -97 313 -149 149 -53 216 -89 276 -149 55 -56 111 -155 138 -245 8
-29 23 -106 31 -170 20 -144 26 -170 75 -301 50 -138 70 -237 70 -357 0 -222
-85 -367 -265 -453 -44 -21 -106 -46 -137 -55 -78 -22 -76 -39 8 -101 154
-113 255 -303 312 -584 l19 -95 179 0 179 0 7 120 c10 187 38 269 167 497 17
31 28 58 24 61 -4 2 -33 12 -63 22 -235 76 -350 224 -350 451 0 114 22 213 75
339 24 57 51 142 60 187 23 119 75 220 151 295 73 72 150 112 331 172 165 55
230 89 313 167 38 36 73 63 78 60 6 -3 13 -25 16 -49 13 -88 66 -138 166 -157
128 -26 180 -43 275 -90 55 -27 125 -69 156 -93 108 -86 216 -260 244 -393 8
-38 20 -160 26 -270 13 -229 5 -323 -35 -403 -43 -84 -161 -173 -281 -211 -82
-26 -81 -28 16 -177 101 -157 154 -299 174 -475 l6 -58 195 0 194 0 0 88 c0
209 -82 402 -250 592 -111 126 -105 112 -69 151 63 68 82 122 87 251 5 143
-14 428 -35 523 -9 39 -26 94 -40 124 l-23 54 24 26 c62 67 80 178 42 251 -97
186 -286 215 -387 60 l-16 -24 -64 28 c-35 15 -120 41 -189 56 -114 26 -128
32 -157 64 -18 20 -39 58 -48 90 -15 52 -35 70 -50 47 -3 -6 -20 -1 -40 10
-19 11 -38 18 -43 15 -5 -3 -12 -24 -16 -47 -12 -75 -28 -92 -123 -136 -48
-23 -123 -51 -167 -63 l-78 -22 -32 29 c-73 68 -114 80 -193 58 -60 -18 -137
-86 -168 -150 -28 -60 -25 -141 8 -198 26 -43 26 -47 12 -81 -8 -19 -24 -74
-35 -121 -11 -47 -34 -115 -51 -153 -106 -230 -124 -426 -54 -579 27 -59 90
-132 152 -175 24 -16 43 -34 43 -41 0 -7 -28 -55 -61 -107 -34 -52 -76 -121
-94 -153 l-32 -58 -35 73 c-19 40 -64 118 -100 173 -36 55 -77 124 -92 153
l-27 53 59 57 c100 98 137 204 136 402 0 147 -9 194 -69 346 -31 77 -50 147
-61 216 -21 140 -50 249 -84 324 l-28 62 24 48 c34 68 34 170 -1 241 -71 143
-214 226 -332 194 -57 -16 -120 -64 -155 -121 l-30 -49 -52 26 c-124 62 -161
90 -184 140 -11 26 -28 74 -37 106 -14 53 -18 57 -45 57 -22 0 -33 -7 -43 -26z
m72 -21 c30 -122 30 -125 13 -111 -34 28 -81 84 -82 96 0 25 21 52 40 52 14 0
22 -10 29 -37z m2010 -481 l22 -17 -37 -35 c-35 -33 -36 -34 -31 -10 4 14 7
37 7 53 0 31 9 34 39 9z"/>
<path d="M2108 1730 c-85 -25 -134 -89 -144 -187 -20 -190 154 -443 323 -469
81 -12 204 53 260 138 40 60 39 142 -2 218 -40 74 -226 262 -285 289 -46 21
-105 25 -152 11z m132 -235 c18 -21 5 -47 -22 -43 -26 3 -37 36 -16 49 18 12
24 11 38 -6z"/>
<path d="M1216 1696 c-154 -80 -307 -213 -346 -298 -26 -58 -26 -139 0 -194
27 -56 98 -120 167 -151 77 -36 164 -30 251 17 83 44 194 161 234 246 50 106
41 236 -22 322 -36 50 -95 82 -164 89 -45 4 -60 1 -120 -31z m178 -201 c20
-20 10 -45 -19 -45 -29 0 -39 25 -19 45 9 8 17 15 19 15 2 0 10 -7 19 -15z"/>
<path d="M3785 1556 c-94 -42 -132 -181 -80 -290 25 -51 119 -153 165 -176 80
-41 153 -35 229 20 57 41 81 84 81 143 0 63 -25 110 -96 178 -126 120 -223
160 -299 125z m70 -166 c0 -18 -6 -26 -23 -28 -13 -2 -25 3 -28 12 -10 26 4
48 28 44 17 -2 23 -10 23 -28z"/>
<path d="M3142 1546 c-41 -22 -153 -140 -183 -191 -51 -88 -34 -163 52 -224
82 -60 160 -51 238 27 128 128 148 333 38 385 -41 20 -112 22 -145 3z m22
-122 c20 -8 21 -38 2 -53 -19 -16 -46 -3 -46 23 0 34 12 42 44 30z"/>
<path d="M1704 1306 c-20 -32 -10 -69 28 -101 50 -42 123 -25 148 36 12 27 11
36 -1 58 -14 24 -20 26 -87 28 -66 2 -74 0 -88 -21z"/>
<path d="M3439 1219 c-22 -22 -19 -50 10 -83 41 -46 109 -39 136 15 20 38 19
52 -5 74 -17 15 -24 16 -47 6 -18 -8 -29 -9 -37 -1 -15 15 -34 12 -57 -11z"/>
</g>
</svg>
